<mxfile host="app.diagrams.net" modified="2023-10-24T09:14:47.566Z" agent="Mozilla/5.0 (Windows NT 10.0; Win64; x64) AppleWebKit/537.36 (KHTML, like Gecko) Chrome/95.0.4638.69 Safari/537.36" etag="gIGlFTq87cj0lzY58F7M" version="22.0.6" type="github">
  <diagram name="第 1 页" id="hXnC2p4p0rNhq8ccNKQz">
    <mxGraphModel dx="2667" dy="552" grid="1" gridSize="10" guides="1" tooltips="1" connect="1" arrows="1" fold="1" page="1" pageScale="1" pageWidth="827" pageHeight="1169" math="0" shadow="0">
      <root>
        <mxCell id="0" />
        <mxCell id="1" parent="0" />
        <mxCell id="aVHi_4DhGkGElkxJ4JL5-83" value="&lt;p style=&quot;border-color: var(--border-color); color: rgb(79, 79, 79); font-family: -apple-system, &amp;quot;SF UI Text&amp;quot;, Arial, &amp;quot;PingFang SC&amp;quot;, &amp;quot;Hiragino Sans GB&amp;quot;, &amp;quot;Microsoft YaHei&amp;quot;, &amp;quot;WenQuanYi Micro Hei&amp;quot;, sans-serif, SimHei, SimSun; font-size: 14px; text-align: left; background-color: rgb(255, 255, 255); box-sizing: border-box; outline: 0px; margin: 0px; padding: 0px; overflow: auto hidden; line-height: 22px; overflow-wrap: break-word;&quot;&gt;&lt;br&gt;&lt;/p&gt;" style="rounded=0;whiteSpace=wrap;html=1;" vertex="1" parent="1">
          <mxGeometry x="1040" y="880" width="120" height="140" as="geometry" />
        </mxCell>
        <mxCell id="aVHi_4DhGkGElkxJ4JL5-365" value="&lt;h4 style=&quot;box-sizing: border-box; outline: 0px; margin: 24px 0px 8px; padding: 0px; font-family: &amp;quot;PingFang SC&amp;quot;, &amp;quot;Microsoft YaHei&amp;quot;, SimHei, Arial, SimSun; font-size: 18px; color: rgb(79, 79, 79); line-height: 26px; overflow-wrap: break-word; text-align: start; background-color: rgb(255, 255, 255);&quot;&gt;规划风险管理&lt;/h4&gt;" style="rounded=0;whiteSpace=wrap;html=1;" vertex="1" parent="1">
          <mxGeometry x="-800" y="6177" width="120" height="120" as="geometry" />
        </mxCell>
        <mxCell id="aVHi_4DhGkGElkxJ4JL5-366" value="&lt;h4 style=&quot;box-sizing: border-box; outline: 0px; margin: 24px 0px 8px; padding: 0px; font-family: &amp;quot;PingFang SC&amp;quot;, &amp;quot;Microsoft YaHei&amp;quot;, SimHei, Arial, SimSun; font-size: 18px; color: rgb(79, 79, 79); line-height: 26px; overflow-wrap: break-word; text-align: start; background-color: rgb(255, 255, 255);&quot;&gt;识别风险&lt;/h4&gt;" style="rounded=0;whiteSpace=wrap;html=1;" vertex="1" parent="1">
          <mxGeometry x="-800" y="6297" width="120" height="314" as="geometry" />
        </mxCell>
        <mxCell id="aVHi_4DhGkGElkxJ4JL5-367" value="&lt;h4 style=&quot;box-sizing: border-box; outline: 0px; margin: 24px 0px 8px; padding: 0px; font-family: &amp;quot;PingFang SC&amp;quot;, &amp;quot;Microsoft YaHei&amp;quot;, SimHei, Arial, SimSun; font-size: 18px; color: rgb(79, 79, 79); line-height: 26px; overflow-wrap: break-word; text-align: start; background-color: rgb(255, 255, 255);&quot;&gt;定性风险分析&lt;/h4&gt;" style="rounded=0;whiteSpace=wrap;html=1;" vertex="1" parent="1">
          <mxGeometry x="-800" y="6611" width="120" height="190" as="geometry" />
        </mxCell>
        <mxCell id="aVHi_4DhGkGElkxJ4JL5-368" value="&lt;p style=&quot;box-sizing: border-box; outline: 0px; margin: 0px; padding: 0px; font-size: 14px; color: rgb(79, 79, 79); overflow: auto hidden; line-height: 22px; overflow-wrap: break-word; text-align: left; font-family: -apple-system, &amp;quot;SF UI Text&amp;quot;, Arial, &amp;quot;PingFang SC&amp;quot;, &amp;quot;Hiragino Sans GB&amp;quot;, &amp;quot;Microsoft YaHei&amp;quot;, &amp;quot;WenQuanYi Micro Hei&amp;quot;, sans-serif, SimHei, SimSun; background-color: rgb(255, 255, 255);&quot;&gt;①分析技术&lt;/p&gt;&lt;p style=&quot;box-sizing: border-box; outline: 0px; margin: 0px; padding: 0px; font-size: 14px; color: rgb(79, 79, 79); overflow: auto hidden; line-height: 22px; overflow-wrap: break-word; text-align: left; font-family: -apple-system, &amp;quot;SF UI Text&amp;quot;, Arial, &amp;quot;PingFang SC&amp;quot;, &amp;quot;Hiragino Sans GB&amp;quot;, &amp;quot;Microsoft YaHei&amp;quot;, &amp;quot;WenQuanYi Micro Hei&amp;quot;, sans-serif, SimHei, SimSun; background-color: rgb(255, 255, 255);&quot;&gt;②专家判断&lt;/p&gt;&lt;p style=&quot;box-sizing: border-box; outline: 0px; margin: 0px; padding: 0px; font-size: 14px; color: rgb(79, 79, 79); overflow: auto hidden; line-height: 22px; overflow-wrap: break-word; text-align: left; font-family: -apple-system, &amp;quot;SF UI Text&amp;quot;, Arial, &amp;quot;PingFang SC&amp;quot;, &amp;quot;Hiragino Sans GB&amp;quot;, &amp;quot;Microsoft YaHei&amp;quot;, &amp;quot;WenQuanYi Micro Hei&amp;quot;, sans-serif, SimHei, SimSun; background-color: rgb(255, 255, 255);&quot;&gt;③会议&lt;/p&gt;" style="rounded=0;whiteSpace=wrap;html=1;" vertex="1" parent="1">
          <mxGeometry x="-560" y="6177" width="120" height="120" as="geometry" />
        </mxCell>
        <mxCell id="aVHi_4DhGkGElkxJ4JL5-369" value="&lt;p style=&quot;box-sizing: border-box; outline: 0px; margin: 0px; padding: 0px; font-size: 14px; color: rgb(79, 79, 79); overflow: auto hidden; line-height: 22px; overflow-wrap: break-word; text-align: left; font-family: -apple-system, &amp;quot;SF UI Text&amp;quot;, Arial, &amp;quot;PingFang SC&amp;quot;, &amp;quot;Hiragino Sans GB&amp;quot;, &amp;quot;Microsoft YaHei&amp;quot;, &amp;quot;WenQuanYi Micro Hei&amp;quot;, sans-serif, SimHei, SimSun; background-color: rgb(255, 255, 255);&quot;&gt;①沟通管理计划&lt;/p&gt;&lt;p style=&quot;box-sizing: border-box; outline: 0px; margin: 0px; padding: 0px; font-size: 14px; color: rgb(79, 79, 79); overflow: auto hidden; line-height: 22px; overflow-wrap: break-word; text-align: left; font-family: -apple-system, &amp;quot;SF UI Text&amp;quot;, Arial, &amp;quot;PingFang SC&amp;quot;, &amp;quot;Hiragino Sans GB&amp;quot;, &amp;quot;Microsoft YaHei&amp;quot;, &amp;quot;WenQuanYi Micro Hei&amp;quot;, sans-serif, SimHei, SimSun; background-color: rgb(255, 255, 255);&quot;&gt;②项目文件更新&lt;/p&gt;" style="rounded=0;whiteSpace=wrap;html=1;" vertex="1" parent="1">
          <mxGeometry x="-440" y="6177" width="120" height="120" as="geometry" />
        </mxCell>
        <mxCell id="aVHi_4DhGkGElkxJ4JL5-370" value="&lt;p style=&quot;box-sizing: border-box; outline: 0px; margin: 0px; padding: 0px; font-size: 14px; color: rgb(79, 79, 79); overflow: auto hidden; line-height: 22px; overflow-wrap: break-word; text-align: left; font-family: -apple-system, &amp;quot;SF UI Text&amp;quot;, Arial, &amp;quot;PingFang SC&amp;quot;, &amp;quot;Hiragino Sans GB&amp;quot;, &amp;quot;Microsoft YaHei&amp;quot;, &amp;quot;WenQuanYi Micro Hei&amp;quot;, sans-serif, SimHei, SimSun; background-color: rgb(255, 255, 255);&quot;&gt;规划过程组&lt;/p&gt;" style="rounded=0;whiteSpace=wrap;html=1;" vertex="1" parent="1">
          <mxGeometry x="-320" y="6177" width="120" height="120" as="geometry" />
        </mxCell>
        <mxCell id="aVHi_4DhGkGElkxJ4JL5-371" value="&lt;p style=&quot;box-sizing: border-box; outline: 0px; margin: 0px; padding: 0px; font-size: 14px; color: rgb(79, 79, 79); overflow: auto hidden; line-height: 22px; overflow-wrap: break-word; text-align: left; font-family: -apple-system, &amp;quot;SF UI Text&amp;quot;, Arial, &amp;quot;PingFang SC&amp;quot;, &amp;quot;Hiragino Sans GB&amp;quot;, &amp;quot;Microsoft YaHei&amp;quot;, &amp;quot;WenQuanYi Micro Hei&amp;quot;, sans-serif, SimHei, SimSun; background-color: rgb(255, 255, 255);&quot;&gt;①项目管理计划&lt;/p&gt;&lt;p style=&quot;box-sizing: border-box; outline: 0px; margin: 0px; padding: 0px; font-size: 14px; color: rgb(79, 79, 79); overflow: auto hidden; line-height: 22px; overflow-wrap: break-word; text-align: left; font-family: -apple-system, &amp;quot;SF UI Text&amp;quot;, Arial, &amp;quot;PingFang SC&amp;quot;, &amp;quot;Hiragino Sans GB&amp;quot;, &amp;quot;Microsoft YaHei&amp;quot;, &amp;quot;WenQuanYi Micro Hei&amp;quot;, sans-serif, SimHei, SimSun; background-color: rgb(255, 255, 255);&quot;&gt;②项目章程&lt;/p&gt;&lt;p style=&quot;box-sizing: border-box; outline: 0px; margin: 0px; padding: 0px; font-size: 14px; color: rgb(79, 79, 79); overflow: auto hidden; line-height: 22px; overflow-wrap: break-word; text-align: left; font-family: -apple-system, &amp;quot;SF UI Text&amp;quot;, Arial, &amp;quot;PingFang SC&amp;quot;, &amp;quot;Hiragino Sans GB&amp;quot;, &amp;quot;Microsoft YaHei&amp;quot;, &amp;quot;WenQuanYi Micro Hei&amp;quot;, sans-serif, SimHei, SimSun; background-color: rgb(255, 255, 255);&quot;&gt;③干系人登记册&lt;/p&gt;&lt;p style=&quot;box-sizing: border-box; outline: 0px; margin: 0px; padding: 0px; font-size: 14px; color: rgb(79, 79, 79); overflow: auto hidden; line-height: 22px; overflow-wrap: break-word; text-align: left; font-family: -apple-system, &amp;quot;SF UI Text&amp;quot;, Arial, &amp;quot;PingFang SC&amp;quot;, &amp;quot;Hiragino Sans GB&amp;quot;, &amp;quot;Microsoft YaHei&amp;quot;, &amp;quot;WenQuanYi Micro Hei&amp;quot;, sans-serif, SimHei, SimSun; background-color: rgb(255, 255, 255);&quot;&gt;④事业环境因素&lt;/p&gt;&lt;p style=&quot;box-sizing: border-box; outline: 0px; margin: 0px; padding: 0px; font-size: 14px; color: rgb(79, 79, 79); overflow: auto hidden; line-height: 22px; overflow-wrap: break-word; text-align: left; font-family: -apple-system, &amp;quot;SF UI Text&amp;quot;, Arial, &amp;quot;PingFang SC&amp;quot;, &amp;quot;Hiragino Sans GB&amp;quot;, &amp;quot;Microsoft YaHei&amp;quot;, &amp;quot;WenQuanYi Micro Hei&amp;quot;, sans-serif, SimHei, SimSun; background-color: rgb(255, 255, 255);&quot;&gt;⑤组织过程资产&lt;/p&gt;" style="rounded=0;whiteSpace=wrap;html=1;" vertex="1" parent="1">
          <mxGeometry x="-680" y="6177" width="120" height="120" as="geometry" />
        </mxCell>
        <mxCell id="aVHi_4DhGkGElkxJ4JL5-372" value="&lt;p style=&quot;box-sizing: border-box; outline: 0px; margin: 0px; padding: 0px; font-size: 14px; color: rgb(79, 79, 79); overflow: auto hidden; line-height: 22px; overflow-wrap: break-word; text-align: left; font-family: -apple-system, &amp;quot;SF UI Text&amp;quot;, Arial, &amp;quot;PingFang SC&amp;quot;, &amp;quot;Hiragino Sans GB&amp;quot;, &amp;quot;Microsoft YaHei&amp;quot;, &amp;quot;WenQuanYi Micro Hei&amp;quot;, sans-serif, SimHei, SimSun; background-color: rgb(255, 255, 255);&quot;&gt;①文档审查&lt;/p&gt;&lt;p style=&quot;box-sizing: border-box; outline: 0px; margin: 0px; padding: 0px; font-size: 14px; color: rgb(79, 79, 79); overflow: auto hidden; line-height: 22px; overflow-wrap: break-word; text-align: left; font-family: -apple-system, &amp;quot;SF UI Text&amp;quot;, Arial, &amp;quot;PingFang SC&amp;quot;, &amp;quot;Hiragino Sans GB&amp;quot;, &amp;quot;Microsoft YaHei&amp;quot;, &amp;quot;WenQuanYi Micro Hei&amp;quot;, sans-serif, SimHei, SimSun; background-color: rgb(255, 255, 255);&quot;&gt;②信息收集技术&lt;/p&gt;&lt;p style=&quot;box-sizing: border-box; outline: 0px; margin: 0px; padding: 0px; font-size: 14px; color: rgb(79, 79, 79); overflow: auto hidden; line-height: 22px; overflow-wrap: break-word; text-align: left; font-family: -apple-system, &amp;quot;SF UI Text&amp;quot;, Arial, &amp;quot;PingFang SC&amp;quot;, &amp;quot;Hiragino Sans GB&amp;quot;, &amp;quot;Microsoft YaHei&amp;quot;, &amp;quot;WenQuanYi Micro Hei&amp;quot;, sans-serif, SimHei, SimSun; background-color: rgb(255, 255, 255);&quot;&gt;③核对单分析&lt;/p&gt;&lt;p style=&quot;box-sizing: border-box; outline: 0px; margin: 0px; padding: 0px; font-size: 14px; color: rgb(79, 79, 79); overflow: auto hidden; line-height: 22px; overflow-wrap: break-word; text-align: left; font-family: -apple-system, &amp;quot;SF UI Text&amp;quot;, Arial, &amp;quot;PingFang SC&amp;quot;, &amp;quot;Hiragino Sans GB&amp;quot;, &amp;quot;Microsoft YaHei&amp;quot;, &amp;quot;WenQuanYi Micro Hei&amp;quot;, sans-serif, SimHei, SimSun; background-color: rgb(255, 255, 255);&quot;&gt;④假设分析&lt;/p&gt;&lt;p style=&quot;box-sizing: border-box; outline: 0px; margin: 0px; padding: 0px; font-size: 14px; color: rgb(79, 79, 79); overflow: auto hidden; line-height: 22px; overflow-wrap: break-word; text-align: left; font-family: -apple-system, &amp;quot;SF UI Text&amp;quot;, Arial, &amp;quot;PingFang SC&amp;quot;, &amp;quot;Hiragino Sans GB&amp;quot;, &amp;quot;Microsoft YaHei&amp;quot;, &amp;quot;WenQuanYi Micro Hei&amp;quot;, sans-serif, SimHei, SimSun; background-color: rgb(255, 255, 255);&quot;&gt;⑤图解技术&lt;/p&gt;&lt;p style=&quot;box-sizing: border-box; outline: 0px; margin: 0px; padding: 0px; font-size: 14px; color: rgb(79, 79, 79); overflow: auto hidden; line-height: 22px; overflow-wrap: break-word; text-align: left; font-family: -apple-system, &amp;quot;SF UI Text&amp;quot;, Arial, &amp;quot;PingFang SC&amp;quot;, &amp;quot;Hiragino Sans GB&amp;quot;, &amp;quot;Microsoft YaHei&amp;quot;, &amp;quot;WenQuanYi Micro Hei&amp;quot;, sans-serif, SimHei, SimSun; background-color: rgb(255, 255, 255);&quot;&gt;⑥SWOT 分析&lt;/p&gt;&lt;p style=&quot;box-sizing: border-box; outline: 0px; margin: 0px; padding: 0px; font-size: 14px; color: rgb(79, 79, 79); overflow: auto hidden; line-height: 22px; overflow-wrap: break-word; text-align: left; font-family: -apple-system, &amp;quot;SF UI Text&amp;quot;, Arial, &amp;quot;PingFang SC&amp;quot;, &amp;quot;Hiragino Sans GB&amp;quot;, &amp;quot;Microsoft YaHei&amp;quot;, &amp;quot;WenQuanYi Micro Hei&amp;quot;, sans-serif, SimHei, SimSun; background-color: rgb(255, 255, 255);&quot;&gt;⑦专家判断&lt;/p&gt;" style="rounded=0;whiteSpace=wrap;html=1;" vertex="1" parent="1">
          <mxGeometry x="-560" y="6297" width="120" height="314" as="geometry" />
        </mxCell>
        <mxCell id="aVHi_4DhGkGElkxJ4JL5-373" value="&lt;p style=&quot;box-sizing: border-box; outline: 0px; margin: 0px; padding: 0px; font-size: 14px; color: rgb(79, 79, 79); overflow: auto hidden; line-height: 22px; overflow-wrap: break-word; text-align: left; font-family: -apple-system, &amp;quot;SF UI Text&amp;quot;, Arial, &amp;quot;PingFang SC&amp;quot;, &amp;quot;Hiragino Sans GB&amp;quot;, &amp;quot;Microsoft YaHei&amp;quot;, &amp;quot;WenQuanYi Micro Hei&amp;quot;, sans-serif, SimHei, SimSun; background-color: rgb(255, 255, 255);&quot;&gt;①风险登记册&lt;br&gt;&lt;/p&gt;" style="rounded=0;whiteSpace=wrap;html=1;" vertex="1" parent="1">
          <mxGeometry x="-440" y="6297" width="120" height="314" as="geometry" />
        </mxCell>
        <mxCell id="aVHi_4DhGkGElkxJ4JL5-374" value="&lt;p style=&quot;box-sizing: border-box; outline: 0px; margin: 0px; padding: 0px; font-size: 14px; color: rgb(79, 79, 79); overflow: auto hidden; line-height: 22px; overflow-wrap: break-word; text-align: left; font-family: -apple-system, &amp;quot;SF UI Text&amp;quot;, Arial, &amp;quot;PingFang SC&amp;quot;, &amp;quot;Hiragino Sans GB&amp;quot;, &amp;quot;Microsoft YaHei&amp;quot;, &amp;quot;WenQuanYi Micro Hei&amp;quot;, sans-serif, SimHei, SimSun; background-color: rgb(255, 255, 255);&quot;&gt;规划过程组&lt;br&gt;&lt;/p&gt;" style="rounded=0;whiteSpace=wrap;html=1;" vertex="1" parent="1">
          <mxGeometry x="-320" y="6297" width="120" height="314" as="geometry" />
        </mxCell>
        <mxCell id="aVHi_4DhGkGElkxJ4JL5-375" value="&lt;p style=&quot;box-sizing: border-box; outline: 0px; margin: 0px; padding: 0px; font-size: 14px; color: rgb(79, 79, 79); overflow: auto hidden; line-height: 22px; overflow-wrap: break-word; text-align: left; font-family: -apple-system, &amp;quot;SF UI Text&amp;quot;, Arial, &amp;quot;PingFang SC&amp;quot;, &amp;quot;Hiragino Sans GB&amp;quot;, &amp;quot;Microsoft YaHei&amp;quot;, &amp;quot;WenQuanYi Micro Hei&amp;quot;, sans-serif, SimHei, SimSun; background-color: rgb(255, 255, 255);&quot;&gt;①风险管理计划&lt;/p&gt;&lt;p style=&quot;box-sizing: border-box; outline: 0px; margin: 0px; padding: 0px; font-size: 14px; color: rgb(79, 79, 79); overflow: auto hidden; line-height: 22px; overflow-wrap: break-word; text-align: left; font-family: -apple-system, &amp;quot;SF UI Text&amp;quot;, Arial, &amp;quot;PingFang SC&amp;quot;, &amp;quot;Hiragino Sans GB&amp;quot;, &amp;quot;Microsoft YaHei&amp;quot;, &amp;quot;WenQuanYi Micro Hei&amp;quot;, sans-serif, SimHei, SimSun; background-color: rgb(255, 255, 255);&quot;&gt;②成本管理计划&lt;/p&gt;&lt;p style=&quot;box-sizing: border-box; outline: 0px; margin: 0px; padding: 0px; font-size: 14px; color: rgb(79, 79, 79); overflow: auto hidden; line-height: 22px; overflow-wrap: break-word; text-align: left; font-family: -apple-system, &amp;quot;SF UI Text&amp;quot;, Arial, &amp;quot;PingFang SC&amp;quot;, &amp;quot;Hiragino Sans GB&amp;quot;, &amp;quot;Microsoft YaHei&amp;quot;, &amp;quot;WenQuanYi Micro Hei&amp;quot;, sans-serif, SimHei, SimSun; background-color: rgb(255, 255, 255);&quot;&gt;③进度管理计划&lt;/p&gt;&lt;p style=&quot;box-sizing: border-box; outline: 0px; margin: 0px; padding: 0px; font-size: 14px; color: rgb(79, 79, 79); overflow: auto hidden; line-height: 22px; overflow-wrap: break-word; text-align: left; font-family: -apple-system, &amp;quot;SF UI Text&amp;quot;, Arial, &amp;quot;PingFang SC&amp;quot;, &amp;quot;Hiragino Sans GB&amp;quot;, &amp;quot;Microsoft YaHei&amp;quot;, &amp;quot;WenQuanYi Micro Hei&amp;quot;, sans-serif, SimHei, SimSun; background-color: rgb(255, 255, 255);&quot;&gt;④质量管理计划&lt;/p&gt;&lt;p style=&quot;box-sizing: border-box; outline: 0px; margin: 0px; padding: 0px; font-size: 14px; color: rgb(79, 79, 79); overflow: auto hidden; line-height: 22px; overflow-wrap: break-word; text-align: left; font-family: -apple-system, &amp;quot;SF UI Text&amp;quot;, Arial, &amp;quot;PingFang SC&amp;quot;, &amp;quot;Hiragino Sans GB&amp;quot;, &amp;quot;Microsoft YaHei&amp;quot;, &amp;quot;WenQuanYi Micro Hei&amp;quot;, sans-serif, SimHei, SimSun; background-color: rgb(255, 255, 255);&quot;&gt;⑤人力资源管理计划&lt;/p&gt;&lt;p style=&quot;box-sizing: border-box; outline: 0px; margin: 0px; padding: 0px; font-size: 14px; color: rgb(79, 79, 79); overflow: auto hidden; line-height: 22px; overflow-wrap: break-word; text-align: left; font-family: -apple-system, &amp;quot;SF UI Text&amp;quot;, Arial, &amp;quot;PingFang SC&amp;quot;, &amp;quot;Hiragino Sans GB&amp;quot;, &amp;quot;Microsoft YaHei&amp;quot;, &amp;quot;WenQuanYi Micro Hei&amp;quot;, sans-serif, SimHei, SimSun; background-color: rgb(255, 255, 255);&quot;&gt;⑥范围基准&lt;/p&gt;&lt;p style=&quot;box-sizing: border-box; outline: 0px; margin: 0px; padding: 0px; font-size: 14px; color: rgb(79, 79, 79); overflow: auto hidden; line-height: 22px; overflow-wrap: break-word; text-align: left; font-family: -apple-system, &amp;quot;SF UI Text&amp;quot;, Arial, &amp;quot;PingFang SC&amp;quot;, &amp;quot;Hiragino Sans GB&amp;quot;, &amp;quot;Microsoft YaHei&amp;quot;, &amp;quot;WenQuanYi Micro Hei&amp;quot;, sans-serif, SimHei, SimSun; background-color: rgb(255, 255, 255);&quot;&gt;⑦活动成本估算和活动持续时间估算&lt;/p&gt;&lt;p style=&quot;box-sizing: border-box; outline: 0px; margin: 0px; padding: 0px; font-size: 14px; color: rgb(79, 79, 79); overflow: auto hidden; line-height: 22px; overflow-wrap: break-word; text-align: left; font-family: -apple-system, &amp;quot;SF UI Text&amp;quot;, Arial, &amp;quot;PingFang SC&amp;quot;, &amp;quot;Hiragino Sans GB&amp;quot;, &amp;quot;Microsoft YaHei&amp;quot;, &amp;quot;WenQuanYi Micro Hei&amp;quot;, sans-serif, SimHei, SimSun; background-color: rgb(255, 255, 255);&quot;&gt;⑧干系人登记册&lt;/p&gt;&lt;p style=&quot;box-sizing: border-box; outline: 0px; margin: 0px; padding: 0px; font-size: 14px; color: rgb(79, 79, 79); overflow: auto hidden; line-height: 22px; overflow-wrap: break-word; text-align: left; font-family: -apple-system, &amp;quot;SF UI Text&amp;quot;, Arial, &amp;quot;PingFang SC&amp;quot;, &amp;quot;Hiragino Sans GB&amp;quot;, &amp;quot;Microsoft YaHei&amp;quot;, &amp;quot;WenQuanYi Micro Hei&amp;quot;, sans-serif, SimHei, SimSun; background-color: rgb(255, 255, 255);&quot;&gt;⑨项目文件&lt;/p&gt;&lt;p style=&quot;box-sizing: border-box; outline: 0px; margin: 0px; padding: 0px; font-size: 14px; color: rgb(79, 79, 79); overflow: auto hidden; line-height: 22px; overflow-wrap: break-word; text-align: left; font-family: -apple-system, &amp;quot;SF UI Text&amp;quot;, Arial, &amp;quot;PingFang SC&amp;quot;, &amp;quot;Hiragino Sans GB&amp;quot;, &amp;quot;Microsoft YaHei&amp;quot;, &amp;quot;WenQuanYi Micro Hei&amp;quot;, sans-serif, SimHei, SimSun; background-color: rgb(255, 255, 255);&quot;&gt;⑩采购文件&lt;/p&gt;&lt;p style=&quot;box-sizing: border-box; outline: 0px; margin: 0px; padding: 0px; font-size: 14px; color: rgb(79, 79, 79); overflow: auto hidden; line-height: 22px; overflow-wrap: break-word; text-align: left; font-family: -apple-system, &amp;quot;SF UI Text&amp;quot;, Arial, &amp;quot;PingFang SC&amp;quot;, &amp;quot;Hiragino Sans GB&amp;quot;, &amp;quot;Microsoft YaHei&amp;quot;, &amp;quot;WenQuanYi Micro Hei&amp;quot;, sans-serif, SimHei, SimSun; background-color: rgb(255, 255, 255);&quot;&gt;⑪事业环境因素&lt;/p&gt;&lt;p style=&quot;box-sizing: border-box; outline: 0px; margin: 0px; padding: 0px; font-size: 14px; color: rgb(79, 79, 79); overflow: auto hidden; line-height: 22px; overflow-wrap: break-word; text-align: left; font-family: -apple-system, &amp;quot;SF UI Text&amp;quot;, Arial, &amp;quot;PingFang SC&amp;quot;, &amp;quot;Hiragino Sans GB&amp;quot;, &amp;quot;Microsoft YaHei&amp;quot;, &amp;quot;WenQuanYi Micro Hei&amp;quot;, sans-serif, SimHei, SimSun; background-color: rgb(255, 255, 255);&quot;&gt;⑫组织过程资产&lt;/p&gt;" style="rounded=0;whiteSpace=wrap;html=1;" vertex="1" parent="1">
          <mxGeometry x="-680" y="6297" width="120" height="314" as="geometry" />
        </mxCell>
        <mxCell id="aVHi_4DhGkGElkxJ4JL5-376" value="&lt;p style=&quot;box-sizing: border-box; outline: 0px; margin: 0px; padding: 0px; font-size: 14px; color: rgb(79, 79, 79); overflow: auto hidden; line-height: 22px; overflow-wrap: break-word; text-align: left; font-family: -apple-system, &amp;quot;SF UI Text&amp;quot;, Arial, &amp;quot;PingFang SC&amp;quot;, &amp;quot;Hiragino Sans GB&amp;quot;, &amp;quot;Microsoft YaHei&amp;quot;, &amp;quot;WenQuanYi Micro Hei&amp;quot;, sans-serif, SimHei, SimSun; background-color: rgb(255, 255, 255);&quot;&gt;①风险概率与影响评估&lt;/p&gt;&lt;p style=&quot;box-sizing: border-box; outline: 0px; margin: 0px; padding: 0px; font-size: 14px; color: rgb(79, 79, 79); overflow: auto hidden; line-height: 22px; overflow-wrap: break-word; text-align: left; font-family: -apple-system, &amp;quot;SF UI Text&amp;quot;, Arial, &amp;quot;PingFang SC&amp;quot;, &amp;quot;Hiragino Sans GB&amp;quot;, &amp;quot;Microsoft YaHei&amp;quot;, &amp;quot;WenQuanYi Micro Hei&amp;quot;, sans-serif, SimHei, SimSun; background-color: rgb(255, 255, 255);&quot;&gt;②概率和影响矩阵&lt;/p&gt;&lt;p style=&quot;box-sizing: border-box; outline: 0px; margin: 0px; padding: 0px; font-size: 14px; color: rgb(79, 79, 79); overflow: auto hidden; line-height: 22px; overflow-wrap: break-word; text-align: left; font-family: -apple-system, &amp;quot;SF UI Text&amp;quot;, Arial, &amp;quot;PingFang SC&amp;quot;, &amp;quot;Hiragino Sans GB&amp;quot;, &amp;quot;Microsoft YaHei&amp;quot;, &amp;quot;WenQuanYi Micro Hei&amp;quot;, sans-serif, SimHei, SimSun; background-color: rgb(255, 255, 255);&quot;&gt;③风险数据质量评估&lt;/p&gt;&lt;p style=&quot;box-sizing: border-box; outline: 0px; margin: 0px; padding: 0px; font-size: 14px; color: rgb(79, 79, 79); overflow: auto hidden; line-height: 22px; overflow-wrap: break-word; text-align: left; font-family: -apple-system, &amp;quot;SF UI Text&amp;quot;, Arial, &amp;quot;PingFang SC&amp;quot;, &amp;quot;Hiragino Sans GB&amp;quot;, &amp;quot;Microsoft YaHei&amp;quot;, &amp;quot;WenQuanYi Micro Hei&amp;quot;, sans-serif, SimHei, SimSun; background-color: rgb(255, 255, 255);&quot;&gt;④风险分类&lt;/p&gt;&lt;p style=&quot;box-sizing: border-box; outline: 0px; margin: 0px; padding: 0px; font-size: 14px; color: rgb(79, 79, 79); overflow: auto hidden; line-height: 22px; overflow-wrap: break-word; text-align: left; font-family: -apple-system, &amp;quot;SF UI Text&amp;quot;, Arial, &amp;quot;PingFang SC&amp;quot;, &amp;quot;Hiragino Sans GB&amp;quot;, &amp;quot;Microsoft YaHei&amp;quot;, &amp;quot;WenQuanYi Micro Hei&amp;quot;, sans-serif, SimHei, SimSun; background-color: rgb(255, 255, 255);&quot;&gt;⑤风险紧迫性评估&lt;/p&gt;&lt;p style=&quot;box-sizing: border-box; outline: 0px; margin: 0px; padding: 0px; font-size: 14px; color: rgb(79, 79, 79); overflow: auto hidden; line-height: 22px; overflow-wrap: break-word; text-align: left; font-family: -apple-system, &amp;quot;SF UI Text&amp;quot;, Arial, &amp;quot;PingFang SC&amp;quot;, &amp;quot;Hiragino Sans GB&amp;quot;, &amp;quot;Microsoft YaHei&amp;quot;, &amp;quot;WenQuanYi Micro Hei&amp;quot;, sans-serif, SimHei, SimSun; background-color: rgb(255, 255, 255);&quot;&gt;⑥专家判断&lt;/p&gt;" style="rounded=0;whiteSpace=wrap;html=1;" vertex="1" parent="1">
          <mxGeometry x="-560" y="6611.5" width="120" height="189.5" as="geometry" />
        </mxCell>
        <mxCell id="aVHi_4DhGkGElkxJ4JL5-377" value="&lt;p style=&quot;box-sizing: border-box; outline: 0px; margin: 0px; padding: 0px; font-size: 14px; color: rgb(79, 79, 79); overflow: auto hidden; line-height: 22px; overflow-wrap: break-word; text-align: left; font-family: -apple-system, &amp;quot;SF UI Text&amp;quot;, Arial, &amp;quot;PingFang SC&amp;quot;, &amp;quot;Hiragino Sans GB&amp;quot;, &amp;quot;Microsoft YaHei&amp;quot;, &amp;quot;WenQuanYi Micro Hei&amp;quot;, sans-serif, SimHei, SimSun; background-color: rgb(255, 255, 255);&quot;&gt;①项目文件更新&lt;br&gt;&lt;/p&gt;" style="rounded=0;whiteSpace=wrap;html=1;" vertex="1" parent="1">
          <mxGeometry x="-440" y="6611.5" width="120" height="189.5" as="geometry" />
        </mxCell>
        <mxCell id="aVHi_4DhGkGElkxJ4JL5-378" value="&lt;p style=&quot;box-sizing: border-box; outline: 0px; margin: 0px; padding: 0px; font-size: 14px; color: rgb(79, 79, 79); overflow: auto hidden; line-height: 22px; overflow-wrap: break-word; text-align: left; font-family: -apple-system, &amp;quot;SF UI Text&amp;quot;, Arial, &amp;quot;PingFang SC&amp;quot;, &amp;quot;Hiragino Sans GB&amp;quot;, &amp;quot;Microsoft YaHei&amp;quot;, &amp;quot;WenQuanYi Micro Hei&amp;quot;, sans-serif, SimHei, SimSun; background-color: rgb(255, 255, 255);&quot;&gt;规划过程组&lt;br&gt;&lt;/p&gt;" style="rounded=0;whiteSpace=wrap;html=1;" vertex="1" parent="1">
          <mxGeometry x="-320" y="6611.5" width="120" height="189.5" as="geometry" />
        </mxCell>
        <mxCell id="aVHi_4DhGkGElkxJ4JL5-379" value="&lt;p style=&quot;box-sizing: border-box; outline: 0px; margin: 0px; padding: 0px; font-size: 14px; color: rgb(79, 79, 79); overflow: auto hidden; line-height: 22px; overflow-wrap: break-word; text-align: left; font-family: -apple-system, &amp;quot;SF UI Text&amp;quot;, Arial, &amp;quot;PingFang SC&amp;quot;, &amp;quot;Hiragino Sans GB&amp;quot;, &amp;quot;Microsoft YaHei&amp;quot;, &amp;quot;WenQuanYi Micro Hei&amp;quot;, sans-serif, SimHei, SimSun; background-color: rgb(255, 255, 255);&quot;&gt;①风险管理计划&lt;/p&gt;&lt;p style=&quot;box-sizing: border-box; outline: 0px; margin: 0px; padding: 0px; font-size: 14px; color: rgb(79, 79, 79); overflow: auto hidden; line-height: 22px; overflow-wrap: break-word; text-align: left; font-family: -apple-system, &amp;quot;SF UI Text&amp;quot;, Arial, &amp;quot;PingFang SC&amp;quot;, &amp;quot;Hiragino Sans GB&amp;quot;, &amp;quot;Microsoft YaHei&amp;quot;, &amp;quot;WenQuanYi Micro Hei&amp;quot;, sans-serif, SimHei, SimSun; background-color: rgb(255, 255, 255);&quot;&gt;②范围基准&lt;/p&gt;&lt;p style=&quot;box-sizing: border-box; outline: 0px; margin: 0px; padding: 0px; font-size: 14px; color: rgb(79, 79, 79); overflow: auto hidden; line-height: 22px; overflow-wrap: break-word; text-align: left; font-family: -apple-system, &amp;quot;SF UI Text&amp;quot;, Arial, &amp;quot;PingFang SC&amp;quot;, &amp;quot;Hiragino Sans GB&amp;quot;, &amp;quot;Microsoft YaHei&amp;quot;, &amp;quot;WenQuanYi Micro Hei&amp;quot;, sans-serif, SimHei, SimSun; background-color: rgb(255, 255, 255);&quot;&gt;③风险登记册&lt;/p&gt;&lt;p style=&quot;box-sizing: border-box; outline: 0px; margin: 0px; padding: 0px; font-size: 14px; color: rgb(79, 79, 79); overflow: auto hidden; line-height: 22px; overflow-wrap: break-word; text-align: left; font-family: -apple-system, &amp;quot;SF UI Text&amp;quot;, Arial, &amp;quot;PingFang SC&amp;quot;, &amp;quot;Hiragino Sans GB&amp;quot;, &amp;quot;Microsoft YaHei&amp;quot;, &amp;quot;WenQuanYi Micro Hei&amp;quot;, sans-serif, SimHei, SimSun; background-color: rgb(255, 255, 255);&quot;&gt;④事业环境因素&lt;/p&gt;&lt;p style=&quot;box-sizing: border-box; outline: 0px; margin: 0px; padding: 0px; font-size: 14px; color: rgb(79, 79, 79); overflow: auto hidden; line-height: 22px; overflow-wrap: break-word; text-align: left; font-family: -apple-system, &amp;quot;SF UI Text&amp;quot;, Arial, &amp;quot;PingFang SC&amp;quot;, &amp;quot;Hiragino Sans GB&amp;quot;, &amp;quot;Microsoft YaHei&amp;quot;, &amp;quot;WenQuanYi Micro Hei&amp;quot;, sans-serif, SimHei, SimSun; background-color: rgb(255, 255, 255);&quot;&gt;⑤组织过程资产&lt;/p&gt;" style="rounded=0;whiteSpace=wrap;html=1;" vertex="1" parent="1">
          <mxGeometry x="-680" y="6611.5" width="120" height="189.5" as="geometry" />
        </mxCell>
        <mxCell id="aVHi_4DhGkGElkxJ4JL5-380" value="&lt;h3 style=&quot;box-sizing: border-box; outline: 0px; margin: 24px 0px 8px; padding: 0px; font-family: &amp;quot;PingFang SC&amp;quot;, &amp;quot;Microsoft YaHei&amp;quot;, SimHei, Arial, SimSun; font-size: 20px; color: rgb(79, 79, 79); line-height: 30px; overflow-wrap: break-word; text-align: start; background-color: rgb(255, 255, 255);&quot;&gt;风险管理&lt;/h3&gt;" style="rounded=0;whiteSpace=wrap;html=1;" vertex="1" parent="1">
          <mxGeometry x="-920" y="6176" width="120" height="1064" as="geometry" />
        </mxCell>
        <mxCell id="aVHi_4DhGkGElkxJ4JL5-381" value="&lt;h4 style=&quot;box-sizing: border-box; outline: 0px; margin: 24px 0px 8px; padding: 0px; font-family: &amp;quot;PingFang SC&amp;quot;, &amp;quot;Microsoft YaHei&amp;quot;, SimHei, Arial, SimSun; font-size: 18px; color: rgb(79, 79, 79); line-height: 26px; overflow-wrap: break-word; text-align: start; background-color: rgb(255, 255, 255);&quot;&gt;定量风险分析&lt;/h4&gt;" style="rounded=0;whiteSpace=wrap;html=1;" vertex="1" parent="1">
          <mxGeometry x="-800" y="6801" width="120" height="140" as="geometry" />
        </mxCell>
        <mxCell id="aVHi_4DhGkGElkxJ4JL5-382" value="&lt;p style=&quot;box-sizing: border-box; outline: 0px; margin: 0px; padding: 0px; font-size: 14px; color: rgb(79, 79, 79); overflow: auto hidden; line-height: 22px; overflow-wrap: break-word; text-align: left; font-family: -apple-system, &amp;quot;SF UI Text&amp;quot;, Arial, &amp;quot;PingFang SC&amp;quot;, &amp;quot;Hiragino Sans GB&amp;quot;, &amp;quot;Microsoft YaHei&amp;quot;, &amp;quot;WenQuanYi Micro Hei&amp;quot;, sans-serif, SimHei, SimSun; background-color: rgb(255, 255, 255);&quot;&gt;①数据收集与表示技术&lt;/p&gt;&lt;p style=&quot;box-sizing: border-box; outline: 0px; margin: 0px; padding: 0px; font-size: 14px; color: rgb(79, 79, 79); overflow: auto hidden; line-height: 22px; overflow-wrap: break-word; text-align: left; font-family: -apple-system, &amp;quot;SF UI Text&amp;quot;, Arial, &amp;quot;PingFang SC&amp;quot;, &amp;quot;Hiragino Sans GB&amp;quot;, &amp;quot;Microsoft YaHei&amp;quot;, &amp;quot;WenQuanYi Micro Hei&amp;quot;, sans-serif, SimHei, SimSun; background-color: rgb(255, 255, 255);&quot;&gt;②定量风险分析和建模技术&lt;/p&gt;&lt;p style=&quot;box-sizing: border-box; outline: 0px; margin: 0px; padding: 0px; font-size: 14px; color: rgb(79, 79, 79); overflow: auto hidden; line-height: 22px; overflow-wrap: break-word; text-align: left; font-family: -apple-system, &amp;quot;SF UI Text&amp;quot;, Arial, &amp;quot;PingFang SC&amp;quot;, &amp;quot;Hiragino Sans GB&amp;quot;, &amp;quot;Microsoft YaHei&amp;quot;, &amp;quot;WenQuanYi Micro Hei&amp;quot;, sans-serif, SimHei, SimSun; background-color: rgb(255, 255, 255);&quot;&gt;③专家判断&lt;/p&gt;" style="rounded=0;whiteSpace=wrap;html=1;" vertex="1" parent="1">
          <mxGeometry x="-560" y="6801.5" width="120" height="139.5" as="geometry" />
        </mxCell>
        <mxCell id="aVHi_4DhGkGElkxJ4JL5-383" value="&lt;p style=&quot;box-sizing: border-box; outline: 0px; margin: 0px; padding: 0px; font-size: 14px; color: rgb(79, 79, 79); overflow: auto hidden; line-height: 22px; overflow-wrap: break-word; text-align: left; font-family: -apple-system, &amp;quot;SF UI Text&amp;quot;, Arial, &amp;quot;PingFang SC&amp;quot;, &amp;quot;Hiragino Sans GB&amp;quot;, &amp;quot;Microsoft YaHei&amp;quot;, &amp;quot;WenQuanYi Micro Hei&amp;quot;, sans-serif, SimHei, SimSun; background-color: rgb(255, 255, 255);&quot;&gt;①项目文件更新&lt;br&gt;&lt;/p&gt;" style="rounded=0;whiteSpace=wrap;html=1;" vertex="1" parent="1">
          <mxGeometry x="-440" y="6801.5" width="120" height="139.5" as="geometry" />
        </mxCell>
        <mxCell id="aVHi_4DhGkGElkxJ4JL5-384" value="&lt;p style=&quot;box-sizing: border-box; outline: 0px; margin: 0px; padding: 0px; font-size: 14px; color: rgb(79, 79, 79); overflow: auto hidden; line-height: 22px; overflow-wrap: break-word; text-align: left; font-family: -apple-system, &amp;quot;SF UI Text&amp;quot;, Arial, &amp;quot;PingFang SC&amp;quot;, &amp;quot;Hiragino Sans GB&amp;quot;, &amp;quot;Microsoft YaHei&amp;quot;, &amp;quot;WenQuanYi Micro Hei&amp;quot;, sans-serif, SimHei, SimSun; background-color: rgb(255, 255, 255);&quot;&gt;规划过程组&lt;br&gt;&lt;/p&gt;" style="rounded=0;whiteSpace=wrap;html=1;" vertex="1" parent="1">
          <mxGeometry x="-320" y="6801.5" width="120" height="139.5" as="geometry" />
        </mxCell>
        <mxCell id="aVHi_4DhGkGElkxJ4JL5-385" value="&lt;p style=&quot;box-sizing: border-box; outline: 0px; margin: 0px; padding: 0px; font-size: 14px; color: rgb(79, 79, 79); overflow: auto hidden; line-height: 22px; overflow-wrap: break-word; text-align: left; font-family: -apple-system, &amp;quot;SF UI Text&amp;quot;, Arial, &amp;quot;PingFang SC&amp;quot;, &amp;quot;Hiragino Sans GB&amp;quot;, &amp;quot;Microsoft YaHei&amp;quot;, &amp;quot;WenQuanYi Micro Hei&amp;quot;, sans-serif, SimHei, SimSun; background-color: rgb(255, 255, 255);&quot;&gt;①风险管理计划&lt;/p&gt;&lt;p style=&quot;box-sizing: border-box; outline: 0px; margin: 0px; padding: 0px; font-size: 14px; color: rgb(79, 79, 79); overflow: auto hidden; line-height: 22px; overflow-wrap: break-word; text-align: left; font-family: -apple-system, &amp;quot;SF UI Text&amp;quot;, Arial, &amp;quot;PingFang SC&amp;quot;, &amp;quot;Hiragino Sans GB&amp;quot;, &amp;quot;Microsoft YaHei&amp;quot;, &amp;quot;WenQuanYi Micro Hei&amp;quot;, sans-serif, SimHei, SimSun; background-color: rgb(255, 255, 255);&quot;&gt;②成本管理计划&lt;/p&gt;&lt;p style=&quot;box-sizing: border-box; outline: 0px; margin: 0px; padding: 0px; font-size: 14px; color: rgb(79, 79, 79); overflow: auto hidden; line-height: 22px; overflow-wrap: break-word; text-align: left; font-family: -apple-system, &amp;quot;SF UI Text&amp;quot;, Arial, &amp;quot;PingFang SC&amp;quot;, &amp;quot;Hiragino Sans GB&amp;quot;, &amp;quot;Microsoft YaHei&amp;quot;, &amp;quot;WenQuanYi Micro Hei&amp;quot;, sans-serif, SimHei, SimSun; background-color: rgb(255, 255, 255);&quot;&gt;③进度管理计划&lt;/p&gt;&lt;p style=&quot;box-sizing: border-box; outline: 0px; margin: 0px; padding: 0px; font-size: 14px; color: rgb(79, 79, 79); overflow: auto hidden; line-height: 22px; overflow-wrap: break-word; text-align: left; font-family: -apple-system, &amp;quot;SF UI Text&amp;quot;, Arial, &amp;quot;PingFang SC&amp;quot;, &amp;quot;Hiragino Sans GB&amp;quot;, &amp;quot;Microsoft YaHei&amp;quot;, &amp;quot;WenQuanYi Micro Hei&amp;quot;, sans-serif, SimHei, SimSun; background-color: rgb(255, 255, 255);&quot;&gt;④风险登记册&lt;/p&gt;&lt;p style=&quot;box-sizing: border-box; outline: 0px; margin: 0px; padding: 0px; font-size: 14px; color: rgb(79, 79, 79); overflow: auto hidden; line-height: 22px; overflow-wrap: break-word; text-align: left; font-family: -apple-system, &amp;quot;SF UI Text&amp;quot;, Arial, &amp;quot;PingFang SC&amp;quot;, &amp;quot;Hiragino Sans GB&amp;quot;, &amp;quot;Microsoft YaHei&amp;quot;, &amp;quot;WenQuanYi Micro Hei&amp;quot;, sans-serif, SimHei, SimSun; background-color: rgb(255, 255, 255);&quot;&gt;⑤事业环境因素&lt;/p&gt;&lt;p style=&quot;box-sizing: border-box; outline: 0px; margin: 0px; padding: 0px; font-size: 14px; color: rgb(79, 79, 79); overflow: auto hidden; line-height: 22px; overflow-wrap: break-word; text-align: left; font-family: -apple-system, &amp;quot;SF UI Text&amp;quot;, Arial, &amp;quot;PingFang SC&amp;quot;, &amp;quot;Hiragino Sans GB&amp;quot;, &amp;quot;Microsoft YaHei&amp;quot;, &amp;quot;WenQuanYi Micro Hei&amp;quot;, sans-serif, SimHei, SimSun; background-color: rgb(255, 255, 255);&quot;&gt;⑥组织过程资产&lt;/p&gt;" style="rounded=0;whiteSpace=wrap;html=1;" vertex="1" parent="1">
          <mxGeometry x="-680" y="6801.5" width="120" height="139.5" as="geometry" />
        </mxCell>
        <mxCell id="aVHi_4DhGkGElkxJ4JL5-386" value="&lt;h4 style=&quot;box-sizing: border-box; outline: 0px; margin: 24px 0px 8px; padding: 0px; font-family: &amp;quot;PingFang SC&amp;quot;, &amp;quot;Microsoft YaHei&amp;quot;, SimHei, Arial, SimSun; font-size: 18px; color: rgb(79, 79, 79); line-height: 26px; overflow-wrap: break-word; text-align: start; background-color: rgb(255, 255, 255);&quot;&gt;规划风险应对&lt;/h4&gt;" style="rounded=0;whiteSpace=wrap;html=1;" vertex="1" parent="1">
          <mxGeometry x="-800" y="6940.5" width="120" height="140" as="geometry" />
        </mxCell>
        <mxCell id="aVHi_4DhGkGElkxJ4JL5-387" value="&lt;p style=&quot;box-sizing: border-box; outline: 0px; margin: 0px; padding: 0px; font-size: 14px; color: rgb(79, 79, 79); overflow: auto hidden; line-height: 22px; overflow-wrap: break-word; text-align: left; font-family: -apple-system, &amp;quot;SF UI Text&amp;quot;, Arial, &amp;quot;PingFang SC&amp;quot;, &amp;quot;Hiragino Sans GB&amp;quot;, &amp;quot;Microsoft YaHei&amp;quot;, &amp;quot;WenQuanYi Micro Hei&amp;quot;, sans-serif, SimHei, SimSun; background-color: rgb(255, 255, 255);&quot;&gt;①消极风险或威胁的应对策略&lt;/p&gt;&lt;p style=&quot;box-sizing: border-box; outline: 0px; margin: 0px; padding: 0px; font-size: 14px; color: rgb(79, 79, 79); overflow: auto hidden; line-height: 22px; overflow-wrap: break-word; text-align: left; font-family: -apple-system, &amp;quot;SF UI Text&amp;quot;, Arial, &amp;quot;PingFang SC&amp;quot;, &amp;quot;Hiragino Sans GB&amp;quot;, &amp;quot;Microsoft YaHei&amp;quot;, &amp;quot;WenQuanYi Micro Hei&amp;quot;, sans-serif, SimHei, SimSun; background-color: rgb(255, 255, 255);&quot;&gt;②积极风险或机会的应对策略&lt;/p&gt;&lt;p style=&quot;box-sizing: border-box; outline: 0px; margin: 0px; padding: 0px; font-size: 14px; color: rgb(79, 79, 79); overflow: auto hidden; line-height: 22px; overflow-wrap: break-word; text-align: left; font-family: -apple-system, &amp;quot;SF UI Text&amp;quot;, Arial, &amp;quot;PingFang SC&amp;quot;, &amp;quot;Hiragino Sans GB&amp;quot;, &amp;quot;Microsoft YaHei&amp;quot;, &amp;quot;WenQuanYi Micro Hei&amp;quot;, sans-serif, SimHei, SimSun; background-color: rgb(255, 255, 255);&quot;&gt;③应急应对策略&lt;/p&gt;&lt;p style=&quot;box-sizing: border-box; outline: 0px; margin: 0px; padding: 0px; font-size: 14px; color: rgb(79, 79, 79); overflow: auto hidden; line-height: 22px; overflow-wrap: break-word; text-align: left; font-family: -apple-system, &amp;quot;SF UI Text&amp;quot;, Arial, &amp;quot;PingFang SC&amp;quot;, &amp;quot;Hiragino Sans GB&amp;quot;, &amp;quot;Microsoft YaHei&amp;quot;, &amp;quot;WenQuanYi Micro Hei&amp;quot;, sans-serif, SimHei, SimSun; background-color: rgb(255, 255, 255);&quot;&gt;④专家判断&lt;/p&gt;" style="rounded=0;whiteSpace=wrap;html=1;" vertex="1" parent="1">
          <mxGeometry x="-560" y="6941" width="120" height="139.5" as="geometry" />
        </mxCell>
        <mxCell id="aVHi_4DhGkGElkxJ4JL5-388" value="&lt;p style=&quot;box-sizing: border-box; outline: 0px; margin: 0px; padding: 0px; font-size: 14px; color: rgb(79, 79, 79); overflow: auto hidden; line-height: 22px; overflow-wrap: break-word; text-align: left; font-family: -apple-system, &amp;quot;SF UI Text&amp;quot;, Arial, &amp;quot;PingFang SC&amp;quot;, &amp;quot;Hiragino Sans GB&amp;quot;, &amp;quot;Microsoft YaHei&amp;quot;, &amp;quot;WenQuanYi Micro Hei&amp;quot;, sans-serif, SimHei, SimSun; background-color: rgb(255, 255, 255);&quot;&gt;①项目管理计划更新&lt;/p&gt;&lt;p style=&quot;box-sizing: border-box; outline: 0px; margin: 0px; padding: 0px; font-size: 14px; color: rgb(79, 79, 79); overflow: auto hidden; line-height: 22px; overflow-wrap: break-word; text-align: left; font-family: -apple-system, &amp;quot;SF UI Text&amp;quot;, Arial, &amp;quot;PingFang SC&amp;quot;, &amp;quot;Hiragino Sans GB&amp;quot;, &amp;quot;Microsoft YaHei&amp;quot;, &amp;quot;WenQuanYi Micro Hei&amp;quot;, sans-serif, SimHei, SimSun; background-color: rgb(255, 255, 255);&quot;&gt;②项目文件更新&lt;/p&gt;" style="rounded=0;whiteSpace=wrap;html=1;" vertex="1" parent="1">
          <mxGeometry x="-440" y="6941" width="120" height="139.5" as="geometry" />
        </mxCell>
        <mxCell id="aVHi_4DhGkGElkxJ4JL5-389" value="&lt;p style=&quot;box-sizing: border-box; outline: 0px; margin: 0px; padding: 0px; font-size: 14px; color: rgb(79, 79, 79); overflow: auto hidden; line-height: 22px; overflow-wrap: break-word; text-align: left; font-family: -apple-system, &amp;quot;SF UI Text&amp;quot;, Arial, &amp;quot;PingFang SC&amp;quot;, &amp;quot;Hiragino Sans GB&amp;quot;, &amp;quot;Microsoft YaHei&amp;quot;, &amp;quot;WenQuanYi Micro Hei&amp;quot;, sans-serif, SimHei, SimSun; background-color: rgb(255, 255, 255);&quot;&gt;规划过程组&lt;br&gt;&lt;/p&gt;" style="rounded=0;whiteSpace=wrap;html=1;" vertex="1" parent="1">
          <mxGeometry x="-320" y="6941" width="120" height="139.5" as="geometry" />
        </mxCell>
        <mxCell id="aVHi_4DhGkGElkxJ4JL5-390" value="&lt;p style=&quot;box-sizing: border-box; outline: 0px; margin: 0px; padding: 0px; font-size: 14px; color: rgb(79, 79, 79); overflow: auto hidden; line-height: 22px; overflow-wrap: break-word; text-align: left; font-family: -apple-system, &amp;quot;SF UI Text&amp;quot;, Arial, &amp;quot;PingFang SC&amp;quot;, &amp;quot;Hiragino Sans GB&amp;quot;, &amp;quot;Microsoft YaHei&amp;quot;, &amp;quot;WenQuanYi Micro Hei&amp;quot;, sans-serif, SimHei, SimSun; background-color: rgb(255, 255, 255);&quot;&gt;①风险管理计划&lt;/p&gt;&lt;p style=&quot;box-sizing: border-box; outline: 0px; margin: 0px; padding: 0px; font-size: 14px; color: rgb(79, 79, 79); overflow: auto hidden; line-height: 22px; overflow-wrap: break-word; text-align: left; font-family: -apple-system, &amp;quot;SF UI Text&amp;quot;, Arial, &amp;quot;PingFang SC&amp;quot;, &amp;quot;Hiragino Sans GB&amp;quot;, &amp;quot;Microsoft YaHei&amp;quot;, &amp;quot;WenQuanYi Micro Hei&amp;quot;, sans-serif, SimHei, SimSun; background-color: rgb(255, 255, 255);&quot;&gt;②风险登记册&lt;/p&gt;" style="rounded=0;whiteSpace=wrap;html=1;" vertex="1" parent="1">
          <mxGeometry x="-680" y="6941" width="120" height="139.5" as="geometry" />
        </mxCell>
        <mxCell id="aVHi_4DhGkGElkxJ4JL5-391" value="&lt;h4 style=&quot;box-sizing: border-box; outline: 0px; margin: 24px 0px 8px; padding: 0px; font-family: &amp;quot;PingFang SC&amp;quot;, &amp;quot;Microsoft YaHei&amp;quot;, SimHei, Arial, SimSun; font-size: 18px; color: rgb(79, 79, 79); line-height: 26px; overflow-wrap: break-word; text-align: start; background-color: rgb(255, 255, 255);&quot;&gt;监控风险&lt;/h4&gt;" style="rounded=0;whiteSpace=wrap;html=1;" vertex="1" parent="1">
          <mxGeometry x="-800" y="7080" width="120" height="160" as="geometry" />
        </mxCell>
        <mxCell id="aVHi_4DhGkGElkxJ4JL5-392" value="&lt;p style=&quot;box-sizing: border-box; outline: 0px; margin: 0px; padding: 0px; font-size: 14px; color: rgb(79, 79, 79); overflow: auto hidden; line-height: 22px; overflow-wrap: break-word; text-align: left; font-family: -apple-system, &amp;quot;SF UI Text&amp;quot;, Arial, &amp;quot;PingFang SC&amp;quot;, &amp;quot;Hiragino Sans GB&amp;quot;, &amp;quot;Microsoft YaHei&amp;quot;, &amp;quot;WenQuanYi Micro Hei&amp;quot;, sans-serif, SimHei, SimSun; background-color: rgb(255, 255, 255);&quot;&gt;①风险再评估&lt;/p&gt;&lt;p style=&quot;box-sizing: border-box; outline: 0px; margin: 0px; padding: 0px; font-size: 14px; color: rgb(79, 79, 79); overflow: auto hidden; line-height: 22px; overflow-wrap: break-word; text-align: left; font-family: -apple-system, &amp;quot;SF UI Text&amp;quot;, Arial, &amp;quot;PingFang SC&amp;quot;, &amp;quot;Hiragino Sans GB&amp;quot;, &amp;quot;Microsoft YaHei&amp;quot;, &amp;quot;WenQuanYi Micro Hei&amp;quot;, sans-serif, SimHei, SimSun; background-color: rgb(255, 255, 255);&quot;&gt;②风险审计&lt;/p&gt;&lt;p style=&quot;box-sizing: border-box; outline: 0px; margin: 0px; padding: 0px; font-size: 14px; color: rgb(79, 79, 79); overflow: auto hidden; line-height: 22px; overflow-wrap: break-word; text-align: left; font-family: -apple-system, &amp;quot;SF UI Text&amp;quot;, Arial, &amp;quot;PingFang SC&amp;quot;, &amp;quot;Hiragino Sans GB&amp;quot;, &amp;quot;Microsoft YaHei&amp;quot;, &amp;quot;WenQuanYi Micro Hei&amp;quot;, sans-serif, SimHei, SimSun; background-color: rgb(255, 255, 255);&quot;&gt;③偏差与趋势分析&lt;/p&gt;&lt;p style=&quot;box-sizing: border-box; outline: 0px; margin: 0px; padding: 0px; font-size: 14px; color: rgb(79, 79, 79); overflow: auto hidden; line-height: 22px; overflow-wrap: break-word; text-align: left; font-family: -apple-system, &amp;quot;SF UI Text&amp;quot;, Arial, &amp;quot;PingFang SC&amp;quot;, &amp;quot;Hiragino Sans GB&amp;quot;, &amp;quot;Microsoft YaHei&amp;quot;, &amp;quot;WenQuanYi Micro Hei&amp;quot;, sans-serif, SimHei, SimSun; background-color: rgb(255, 255, 255);&quot;&gt;④技术绩效测量&lt;/p&gt;&lt;p style=&quot;box-sizing: border-box; outline: 0px; margin: 0px; padding: 0px; font-size: 14px; color: rgb(79, 79, 79); overflow: auto hidden; line-height: 22px; overflow-wrap: break-word; text-align: left; font-family: -apple-system, &amp;quot;SF UI Text&amp;quot;, Arial, &amp;quot;PingFang SC&amp;quot;, &amp;quot;Hiragino Sans GB&amp;quot;, &amp;quot;Microsoft YaHei&amp;quot;, &amp;quot;WenQuanYi Micro Hei&amp;quot;, sans-serif, SimHei, SimSun; background-color: rgb(255, 255, 255);&quot;&gt;⑤储备分析&lt;/p&gt;&lt;p style=&quot;box-sizing: border-box; outline: 0px; margin: 0px; padding: 0px; font-size: 14px; color: rgb(79, 79, 79); overflow: auto hidden; line-height: 22px; overflow-wrap: break-word; text-align: left; font-family: -apple-system, &amp;quot;SF UI Text&amp;quot;, Arial, &amp;quot;PingFang SC&amp;quot;, &amp;quot;Hiragino Sans GB&amp;quot;, &amp;quot;Microsoft YaHei&amp;quot;, &amp;quot;WenQuanYi Micro Hei&amp;quot;, sans-serif, SimHei, SimSun; background-color: rgb(255, 255, 255);&quot;&gt;⑥会议&lt;/p&gt;" style="rounded=0;whiteSpace=wrap;html=1;" vertex="1" parent="1">
          <mxGeometry x="-560" y="7080.5" width="120" height="159.5" as="geometry" />
        </mxCell>
        <mxCell id="aVHi_4DhGkGElkxJ4JL5-393" value="&lt;p style=&quot;box-sizing: border-box; outline: 0px; margin: 0px; padding: 0px; font-size: 14px; color: rgb(79, 79, 79); overflow: auto hidden; line-height: 22px; overflow-wrap: break-word; text-align: left; font-family: -apple-system, &amp;quot;SF UI Text&amp;quot;, Arial, &amp;quot;PingFang SC&amp;quot;, &amp;quot;Hiragino Sans GB&amp;quot;, &amp;quot;Microsoft YaHei&amp;quot;, &amp;quot;WenQuanYi Micro Hei&amp;quot;, sans-serif, SimHei, SimSun; background-color: rgb(255, 255, 255);&quot;&gt;①工作绩效信息&lt;/p&gt;&lt;p style=&quot;box-sizing: border-box; outline: 0px; margin: 0px; padding: 0px; font-size: 14px; color: rgb(79, 79, 79); overflow: auto hidden; line-height: 22px; overflow-wrap: break-word; text-align: left; font-family: -apple-system, &amp;quot;SF UI Text&amp;quot;, Arial, &amp;quot;PingFang SC&amp;quot;, &amp;quot;Hiragino Sans GB&amp;quot;, &amp;quot;Microsoft YaHei&amp;quot;, &amp;quot;WenQuanYi Micro Hei&amp;quot;, sans-serif, SimHei, SimSun; background-color: rgb(255, 255, 255);&quot;&gt;②变更请求&lt;/p&gt;&lt;p style=&quot;box-sizing: border-box; outline: 0px; margin: 0px; padding: 0px; font-size: 14px; color: rgb(79, 79, 79); overflow: auto hidden; line-height: 22px; overflow-wrap: break-word; text-align: left; font-family: -apple-system, &amp;quot;SF UI Text&amp;quot;, Arial, &amp;quot;PingFang SC&amp;quot;, &amp;quot;Hiragino Sans GB&amp;quot;, &amp;quot;Microsoft YaHei&amp;quot;, &amp;quot;WenQuanYi Micro Hei&amp;quot;, sans-serif, SimHei, SimSun; background-color: rgb(255, 255, 255);&quot;&gt;③项目管理计划更新&lt;/p&gt;&lt;p style=&quot;box-sizing: border-box; outline: 0px; margin: 0px; padding: 0px; font-size: 14px; color: rgb(79, 79, 79); overflow: auto hidden; line-height: 22px; overflow-wrap: break-word; text-align: left; font-family: -apple-system, &amp;quot;SF UI Text&amp;quot;, Arial, &amp;quot;PingFang SC&amp;quot;, &amp;quot;Hiragino Sans GB&amp;quot;, &amp;quot;Microsoft YaHei&amp;quot;, &amp;quot;WenQuanYi Micro Hei&amp;quot;, sans-serif, SimHei, SimSun; background-color: rgb(255, 255, 255);&quot;&gt;④项目文件更新&lt;/p&gt;&lt;p style=&quot;box-sizing: border-box; outline: 0px; margin: 0px; padding: 0px; font-size: 14px; color: rgb(79, 79, 79); overflow: auto hidden; line-height: 22px; overflow-wrap: break-word; text-align: left; font-family: -apple-system, &amp;quot;SF UI Text&amp;quot;, Arial, &amp;quot;PingFang SC&amp;quot;, &amp;quot;Hiragino Sans GB&amp;quot;, &amp;quot;Microsoft YaHei&amp;quot;, &amp;quot;WenQuanYi Micro Hei&amp;quot;, sans-serif, SimHei, SimSun; background-color: rgb(255, 255, 255);&quot;&gt;⑤组织过程资产更新&lt;/p&gt;" style="rounded=0;whiteSpace=wrap;html=1;" vertex="1" parent="1">
          <mxGeometry x="-440" y="7080.5" width="120" height="159.5" as="geometry" />
        </mxCell>
        <mxCell id="aVHi_4DhGkGElkxJ4JL5-394" value="&lt;p style=&quot;box-sizing: border-box; outline: 0px; margin: 0px; padding: 0px; font-size: 14px; color: rgb(79, 79, 79); overflow: auto hidden; line-height: 22px; overflow-wrap: break-word; text-align: left; font-family: -apple-system, &amp;quot;SF UI Text&amp;quot;, Arial, &amp;quot;PingFang SC&amp;quot;, &amp;quot;Hiragino Sans GB&amp;quot;, &amp;quot;Microsoft YaHei&amp;quot;, &amp;quot;WenQuanYi Micro Hei&amp;quot;, sans-serif, SimHei, SimSun; background-color: rgb(255, 255, 255);&quot;&gt;监控过程组&lt;br&gt;&lt;/p&gt;" style="rounded=0;whiteSpace=wrap;html=1;" vertex="1" parent="1">
          <mxGeometry x="-320" y="7080.5" width="120" height="159.5" as="geometry" />
        </mxCell>
        <mxCell id="aVHi_4DhGkGElkxJ4JL5-395" value="&lt;p style=&quot;box-sizing: border-box; outline: 0px; margin: 0px; padding: 0px; font-size: 14px; color: rgb(79, 79, 79); overflow: auto hidden; line-height: 22px; overflow-wrap: break-word; text-align: left; font-family: -apple-system, &amp;quot;SF UI Text&amp;quot;, Arial, &amp;quot;PingFang SC&amp;quot;, &amp;quot;Hiragino Sans GB&amp;quot;, &amp;quot;Microsoft YaHei&amp;quot;, &amp;quot;WenQuanYi Micro Hei&amp;quot;, sans-serif, SimHei, SimSun; background-color: rgb(255, 255, 255);&quot;&gt;①项目管理计划&lt;/p&gt;&lt;p style=&quot;box-sizing: border-box; outline: 0px; margin: 0px; padding: 0px; font-size: 14px; color: rgb(79, 79, 79); overflow: auto hidden; line-height: 22px; overflow-wrap: break-word; text-align: left; font-family: -apple-system, &amp;quot;SF UI Text&amp;quot;, Arial, &amp;quot;PingFang SC&amp;quot;, &amp;quot;Hiragino Sans GB&amp;quot;, &amp;quot;Microsoft YaHei&amp;quot;, &amp;quot;WenQuanYi Micro Hei&amp;quot;, sans-serif, SimHei, SimSun; background-color: rgb(255, 255, 255);&quot;&gt;②风险登记册&lt;/p&gt;&lt;p style=&quot;box-sizing: border-box; outline: 0px; margin: 0px; padding: 0px; font-size: 14px; color: rgb(79, 79, 79); overflow: auto hidden; line-height: 22px; overflow-wrap: break-word; text-align: left; font-family: -apple-system, &amp;quot;SF UI Text&amp;quot;, Arial, &amp;quot;PingFang SC&amp;quot;, &amp;quot;Hiragino Sans GB&amp;quot;, &amp;quot;Microsoft YaHei&amp;quot;, &amp;quot;WenQuanYi Micro Hei&amp;quot;, sans-serif, SimHei, SimSun; background-color: rgb(255, 255, 255);&quot;&gt;③工作绩效数据&lt;/p&gt;&lt;p style=&quot;box-sizing: border-box; outline: 0px; margin: 0px; padding: 0px; font-size: 14px; color: rgb(79, 79, 79); overflow: auto hidden; line-height: 22px; overflow-wrap: break-word; text-align: left; font-family: -apple-system, &amp;quot;SF UI Text&amp;quot;, Arial, &amp;quot;PingFang SC&amp;quot;, &amp;quot;Hiragino Sans GB&amp;quot;, &amp;quot;Microsoft YaHei&amp;quot;, &amp;quot;WenQuanYi Micro Hei&amp;quot;, sans-serif, SimHei, SimSun; background-color: rgb(255, 255, 255);&quot;&gt;④工作绩效报告&lt;/p&gt;" style="rounded=0;whiteSpace=wrap;html=1;" vertex="1" parent="1">
          <mxGeometry x="-680" y="7080.5" width="120" height="159.5" as="geometry" />
        </mxCell>
        <mxCell id="aVHi_4DhGkGElkxJ4JL5-465" value="输入" style="rounded=0;whiteSpace=wrap;html=1;fillColor=#ffe6cc;strokeColor=#d79b00;" vertex="1" parent="1">
          <mxGeometry x="-680" y="6117" width="120" height="60" as="geometry" />
        </mxCell>
        <mxCell id="aVHi_4DhGkGElkxJ4JL5-466" value="技术或工具" style="rounded=0;whiteSpace=wrap;html=1;fillColor=#ffe6cc;strokeColor=#d79b00;" vertex="1" parent="1">
          <mxGeometry x="-560" y="6117" width="120" height="60" as="geometry" />
        </mxCell>
        <mxCell id="aVHi_4DhGkGElkxJ4JL5-467" value="输出" style="rounded=0;whiteSpace=wrap;html=1;fillColor=#ffe6cc;strokeColor=#d79b00;" vertex="1" parent="1">
          <mxGeometry x="-440" y="6117" width="120" height="60" as="geometry" />
        </mxCell>
        <mxCell id="aVHi_4DhGkGElkxJ4JL5-468" value="过程" style="rounded=0;whiteSpace=wrap;html=1;fillColor=#ffe6cc;strokeColor=#d79b00;" vertex="1" parent="1">
          <mxGeometry x="-800" y="6117" width="120" height="60" as="geometry" />
        </mxCell>
        <mxCell id="aVHi_4DhGkGElkxJ4JL5-469" value="所属分组" style="rounded=0;whiteSpace=wrap;html=1;fillColor=#ffe6cc;strokeColor=#d79b00;" vertex="1" parent="1">
          <mxGeometry x="-320" y="6117" width="120" height="60" as="geometry" />
        </mxCell>
        <mxCell id="aVHi_4DhGkGElkxJ4JL5-470" value="知识领域" style="rounded=0;whiteSpace=wrap;html=1;fillColor=#ffe6cc;strokeColor=#d79b00;" vertex="1" parent="1">
          <mxGeometry x="-920" y="6117" width="120" height="60" as="geometry" />
        </mxCell>
      </root>
    </mxGraphModel>
  </diagram>
</mxfile>
